<svg version="1.1" id="Layer_2" xmlns="http://www.w3.org/2000/svg" xmlns:xlink="http://www.w3.org/1999/xlink" x="0px" y="0px"
	 viewBox="0 0 130.5 18.5"  xml:space="preserve">	 
	<path fill="white" d="M25.2,0H9.9C8.5,0,7.6,1.1,7.3,1.5L0.6,13c-0.9,1.6-1.4,5.5,3.1,5.5H19c0.6,0,1.8-0.3,2.6-1.5l7-12.2
		C29.5,3.3,29.7,0,25.2,0z M22.7,5.5L18.3,13c-0.2,0.4-0.6,0.7-1,0.7H6.5C6,13.7,6,13.3,6.2,13l4.4-7.6c0.2-0.3,0.5-0.7,1.1-0.7
		h10.8C22.8,4.8,22.8,5.2,22.7,5.5z"/>
	<path fill="white" d="M59.8,0c0,0-2.2,0-2.2,0c-0.6,0-1.8,0.3-2.5,1.5l-6.2,10.6c-0.1,0.2-0.3,0.1-0.3,0L42.4,1.5C41.9,0.6,41.4,0,40.7,0h-1.6
		c-1.4,0-2.3,1.1-2.6,1.5L27.6,17c-0.4,0.8-0.1,1.5,0.8,1.5c0,0,2.2,0,2.2,0c0.6,0,1.8-0.3,2.6-1.5l6.2-10.6c0.1-0.1,0.3-0.1,0.3,0
		L45.8,17c0.5,0.9,1.2,1.6,1.8,1.6h1.6c1.4,0,2.1-1,2.4-1.5l8.9-15.5C61.1,0.8,60.6,0,59.8,0z"/>
	<path fill="white" d="M89.8,0c0,0-2.2,0-2.2,0c-0.6,0-1.8,0.3-2.5,1.5l-6.2,10.6c-0.1,0.2-0.3,0.1-0.3,0L72.5,1.5C72,0.6,71.4,0,70.7,0h-1.6
		c-1.4,0-2.3,1.1-2.6,1.5L57.7,17c-0.4,0.8-0.1,1.5,0.8,1.5c0,0,2.2,0,2.2,0c0.6,0,1.8-0.3,2.6-1.5l6.2-10.6c0.1-0.1,0.3-0.1,0.3,0
		L75.8,17c0.5,0.9,1.2,1.6,1.8,1.6h1.6c1.4,0,2.1-1,2.4-1.5l8.9-15.5C91.1,0.8,90.7,0,89.8,0z"/>
	<path fill="white" d="M101.4,0c0,0-2.2,0-2.2,0c-0.6,0-1.8,0.3-2.5,1.5L87.8,17c-0.4,0.8-0.1,1.5,0.8,1.5c0,0,2.2,0,2.2,0c0.6,0,1.8-0.3,2.6-1.5
		l8.9-15.5C102.7,0.8,102.3,0,101.4,0z"/>
	<path fill="white" d="M129.4,0h-19.2c-1.5,0-2.4,1-2.7,1.6c0,0-1,1.8-1,1.8c-0.4,0.8,0.1,1.4,0.9,1.4h6.7c0.2,0,0.3,0.1,0.1,0.4L107.4,17
		c-0.4,0.8-0.1,1.5,0.8,1.5h2.1c0.6,0,1.9-0.3,2.6-1.5l6.9-11.8c0.2-0.3,0.4-0.4,0.6-0.4h6.2c1.5,0,2.4-1,2.7-1.5c0,0,1-1.7,1-1.7
		C130.7,0.8,130.3,0,129.4,0z"/>
</svg>
